<?xml version="1.0" standalone="no"?>
<!DOCTYPE svg PUBLIC "-//W3C//DTD SVG 20010904//EN"
 "http://www.w3.org/TR/2001/REC-SVG-20010904/DTD/svg10.dtd">
<svg version="1.0" xmlns="http://www.w3.org/2000/svg"
 width="260.000000pt" height="260.000000pt" viewBox="0 0 260.000000 260.000000"
 preserveAspectRatio="xMidYMid meet">
<metadata>
Created by potrace 1.14, written by Peter Selinger 2001-2017
</metadata>
<g transform="translate(0.000000,260.000000) scale(0.100000,-0.100000)"
fill="#000000" stroke="none">
<path d="M0 1300 l0 -1300 1300 0 1300 0 0 1300 0 1300 -1300 0 -1300 0 0
-1300z m935 866 c50 -7 104 -20 120 -29 36 -19 162 -128 183 -158 20 -29 20
-98 -2 -131 -19 -30 -72 -58 -108 -58 -31 0 -96 36 -151 82 -33 29 -56 39
-102 47 -55 8 -64 7 -100 -14 -22 -13 -64 -45 -92 -72 -52 -48 -53 -50 -53
-106 0 -53 3 -62 44 -111 24 -30 51 -67 61 -83 19 -32 108 -96 191 -137 35
-17 80 -55 140 -121 49 -53 95 -106 101 -118 36 -64 93 -221 103 -287 12 -73
11 -78 -20 -170 -50 -150 -111 -237 -184 -265 -39 -15 -75 -16 -283 -12 -334
7 -383 24 -467 163 -50 82 -65 131 -66 212 0 48 4 58 34 88 28 28 41 34 77 34
67 0 103 -27 128 -97 33 -89 54 -124 80 -134 13 -5 106 -11 207 -14 209 -4
194 -10 228 93 22 65 17 94 -29 191 -53 110 -126 188 -237 251 -116 66 -181
119 -215 178 -15 24 -51 72 -80 106 -66 75 -77 113 -68 228 11 143 27 194 76
245 57 58 188 162 241 191 49 26 110 28 243 8z m1081 -35 c17 -11 38 -34 45
-52 14 -32 38 -81 105 -208 18 -35 55 -89 82 -120 61 -70 82 -109 88 -169 7
-63 -18 -111 -70 -136 -38 -19 -42 -19 -105 -3 -36 10 -69 17 -73 17 -5 0 -8
-15 -8 -33 0 -18 -8 -58 -17 -88 -13 -40 -16 -80 -13 -154 5 -144 4 -215 -5
-350 -7 -107 -6 -125 10 -155 43 -82 12 -178 -64 -201 -77 -23 -145 26 -187
136 -14 38 -15 68 -10 207 4 90 6 197 4 238 -7 175 -2 266 16 328 11 34 17 65
14 68 -3 2 -53 -5 -112 -16 -121 -24 -154 -21 -195 20 -50 50 -49 118 2 173
16 18 48 61 71 97 22 36 55 87 73 115 18 27 40 71 49 98 17 51 105 155 159
189 39 23 102 23 141 -1z"/>
</g>
</svg>
